<svg width="1024" height="410" viewBox="0 0 1024 410" fill="none" xmlns="http://www.w3.org/2000/svg">
<g clip-path="url(#clip0_1162_2528)">
<path d="M668.369 268.241C665.467 268.241 663.518 269.165 661.035 272.083C660.631 268.66 657.73 268.241 655.449 268.241C652.547 268.241 649.963 269.628 648.361 271.852H648.26L648.924 268.891H641.374L635.816 293.956H643.655L647.293 277.559C647.841 275.103 649.386 273.99 650.887 273.99C652.388 273.99 652.923 275.06 652.518 276.865L648.736 293.956H656.575L660.213 277.559C660.761 275.103 662.306 273.99 663.807 273.99C665.308 273.99 665.842 275.06 665.438 276.865L661.656 293.956H669.495L673.652 275.204C674.72 270.393 672.815 268.255 668.369 268.255V268.241Z" fill="white" stroke="white" stroke-width="0.75"/>
<path d="M689.892 268.241C686.659 268.241 684.334 268.66 682.227 269.859C680.119 271.058 678.589 273.153 677.781 276.576H684.753C685.287 274.395 686.197 273.153 688.362 273.153C690.109 273.153 690.614 274.121 690.268 275.652C689.849 277.544 689.329 277.92 686.832 278.527C684.537 279.076 681.52 279.538 679.369 280.564C677.203 281.59 675.413 284.046 674.764 286.964C673.566 292.381 675.63 294.606 680.033 294.606C682.646 294.606 685.403 293.306 686.962 291.081H687.063C686.89 292.049 686.76 293.075 686.861 293.956H694.411C693.732 292.844 694.281 290.431 694.699 288.539L697.557 275.666C698.727 270.393 696.345 268.255 689.907 268.255L689.892 268.241ZM687.943 285.981C687.395 288.481 685.677 289.405 684.031 289.405C682.588 289.405 682.025 288.206 682.472 286.213C682.775 284.826 683.338 284.031 684.291 283.439C685.143 282.89 686.211 282.832 688.954 281.59C688.737 282.601 688.391 283.901 687.929 285.996L687.943 285.981Z" fill="white" stroke="white" stroke-width="0.75"/>
<path d="M717.319 268.876L716.568 272.257H716.467C716.049 269.989 714.706 268.226 711.169 268.226C704.341 268.226 701.988 275.132 700.675 281.055C699.145 287.961 699.65 293.335 705.309 293.335C707.965 293.335 710.621 292.497 712.324 289.622H712.425L712.093 291.154C711.039 295.921 710.144 297.539 707.532 297.539C706.709 297.539 706.117 297.351 705.713 297.033C705.352 296.716 705.222 296.195 705.222 295.502H697.961C697.124 299.258 698.654 302.451 706.247 302.451C714.518 302.451 717.969 298.695 719.21 293.046L724.566 268.862H717.305L717.319 268.876ZM714.403 280.737C713.147 286.386 711.992 287.874 709.87 287.874C707.748 287.874 707.387 286.213 708.542 280.968C709.452 276.851 710.477 273.976 713.046 273.976C715.327 273.976 715.413 276.158 714.403 280.737Z" fill="white" stroke="white" stroke-width="0.75"/>
<path d="M739.175 268.241C735.927 268.241 733.618 268.66 731.51 269.859C729.403 271.058 727.872 273.153 727.064 276.576H734.036C734.57 274.395 735.48 273.153 737.645 273.153C739.392 273.153 739.897 274.121 739.551 275.652C739.132 277.544 738.612 277.92 736.115 278.527C733.82 279.076 730.803 279.538 728.652 280.564C726.487 281.59 724.682 284.046 724.047 286.964C722.849 292.381 724.913 294.606 729.316 294.606C731.929 294.606 734.686 293.306 736.245 291.081H736.346C736.173 292.049 736.043 293.075 736.144 293.956H743.694C743.015 292.844 743.549 290.431 743.982 288.539L746.841 275.666C748.01 270.393 745.628 268.255 739.19 268.255L739.175 268.241ZM737.227 285.981C736.678 288.481 734.975 289.405 733.315 289.405C731.857 289.405 731.308 288.206 731.741 286.213C732.059 284.826 732.607 284.031 733.574 283.439C734.426 282.89 735.494 282.832 738.237 281.59C738.006 282.601 737.674 283.901 737.212 285.996L737.227 285.981Z" fill="white" stroke="white" stroke-width="0.75"/>
<path d="M770.314 274.626L771.598 268.876H752.861L751.591 274.626H761.032L748.155 288.206L746.885 293.942H766.272L767.557 288.206H757.148L770.314 274.626Z" fill="white" stroke="white" stroke-width="0.75"/>
<path d="M785.398 260.497H777.559L776.289 266.247H784.128L785.398 260.497Z" fill="white" stroke="white" stroke-width="0.75"/>
<path d="M775.696 268.876L770.139 293.942H777.977L783.535 268.876H775.696Z" fill="white" stroke="white" stroke-width="0.75"/>
<path d="M802.159 268.241C799.257 268.241 796.673 269.628 795.071 271.852H794.97L795.619 268.891H788.069L782.512 293.956H790.35L793.988 277.559C794.537 275.103 796.081 273.99 797.582 273.99C799.084 273.99 799.618 275.06 799.214 276.865L795.432 293.956H803.27L807.428 275.204C808.496 270.393 806.59 268.255 802.144 268.255L802.159 268.241Z" fill="white" stroke="white" stroke-width="0.75"/>
<path d="M208.062 140.92C195.214 140.92 185.47 146.67 180.49 155.41C177.588 160.568 176.549 167.719 176.549 175.852V209.008C176.549 217.142 177.588 224.293 180.49 229.451C185.47 238.177 195.214 243.941 208.062 243.941C217.806 243.941 225.485 240.56 231.072 235.013C236.456 229.653 239.575 221.909 239.575 213.573H218.426C218.008 217.936 216.146 223.701 208.062 223.701C201.638 223.701 197.697 220.132 197.697 213.776V200.08H239.575V172.284C239.575 154.615 227.55 140.92 208.062 140.92ZM218.426 184.188H197.697V172.674C197.697 165.133 201.638 161.16 208.062 161.16C214.486 161.16 218.426 165.133 218.426 172.674V184.188Z" fill="white" stroke="white" stroke-width="0.75"/>
<path d="M293.823 140.92C284.079 140.92 278.276 145.485 273.916 151.842H273.498V142.119H252.35V242.756H273.498V175.072C273.498 166.144 276.197 161.174 284.079 161.174C290.719 161.174 294.444 165.74 294.444 173.079V242.756H315.592V165.537C315.592 147.479 304.39 140.92 293.823 140.92Z" fill="white" stroke="white" stroke-width="0.75"/>
<path d="M438.337 204.631H437.918L426.716 142.104H410.13L398.307 204.631H397.888L385.041 142.104H354.149V111.535H333V142.104H322.434V157.982H333V219.121C333 229.841 339.424 242.742 358.508 242.742H367.213V223.686C357.887 223.686 354.149 223.094 354.149 213.761V157.982H366.578L387.538 242.742H406.203L417.809 182.989H418.228L429.834 242.742H448.5L473.386 142.104H450.997L438.351 204.631H438.337Z" fill="white" stroke="white" stroke-width="0.75"/>
<path d="M503.47 111.636H482.322V131.876H503.47V111.636Z" fill="white" stroke="white" stroke-width="0.75"/>
<path d="M503.427 142.104H482.279V242.742H503.427V142.104Z" fill="white" stroke="white" stroke-width="0.75"/>
<path d="M549.462 161.16C555.886 161.16 559.827 164.93 559.827 173.064H580.975C580.975 154.413 568.95 140.905 549.462 140.905C536.614 140.905 526.856 146.655 521.89 155.395C518.989 160.553 517.949 167.704 517.949 175.838V208.994C517.949 217.127 518.989 224.279 521.89 229.436C526.87 238.162 536.614 243.926 549.462 243.926C559.206 243.926 566.886 240.546 572.472 234.998C577.871 229.638 580.975 221.895 580.975 213.559H559.827C559.408 217.922 557.546 223.686 549.462 223.686C543.038 223.686 539.097 220.118 539.097 213.761V172.674C539.097 165.133 543.038 161.16 549.462 161.16Z" fill="white" stroke="white" stroke-width="0.75"/>
<path d="M662.941 242.742L632.67 183.004L657.759 142.104H636.611L611.118 185.98H610.699V111.636H589.551V242.742H610.699V214.556L620.847 199.271L639.931 242.742H662.941Z" fill="white" stroke="white" stroke-width="0.75"/>
<path d="M699.087 224.885C691.003 224.091 688.722 221.909 688.722 214.368V111.636H667.574V215.74C667.574 239.159 679.599 243.926 699.087 243.926V224.871V224.885Z" fill="white" stroke="white" stroke-width="0.75"/>
<path d="M738.409 243.941C748.153 243.941 755.819 240.56 761.42 235.013C766.819 229.653 769.922 221.909 769.922 213.573H748.774C748.355 217.936 746.493 223.701 738.409 223.701C731.986 223.701 728.045 220.132 728.045 213.776V200.08H769.922V172.284C769.922 154.615 757.897 140.92 738.409 140.92C725.547 140.92 715.803 146.67 710.837 155.41C707.936 160.568 706.896 167.719 706.896 175.852V209.008C706.896 217.142 707.936 224.293 710.837 229.451C715.818 238.177 725.562 243.941 738.409 243.941ZM728.045 172.689C728.045 165.147 731.986 161.174 738.409 161.174C744.833 161.174 748.774 165.147 748.774 172.689V184.203H728.045V172.689Z" fill="white" stroke="white" stroke-width="0.75"/>
<path d="M802.476 152.824V142.104H781.328V242.742H802.476V182.989C802.476 166.52 815.122 161.16 824.043 161.16C826.324 161.16 828.403 161.55 830.467 162.344V140.905C818.24 140.905 811.181 145.47 802.476 152.809V152.824Z" fill="white" stroke="white" stroke-width="0.75"/>
</g>
<defs>
<clipPath id="clip0_1162_2528">
<rect width="655" height="192" fill="white" transform="translate(176 111)"/>
</clipPath>
</defs>
</svg>
